<svg width="89" height="25" viewBox="0 0 89 25" fill="none" xmlns="http://www.w3.org/2000/svg">
<path d="M0.784091 24V20.5L1.44318 20.4659C2.33712 20.4129 3.04545 20.0909 3.56818 19.5C4.09848 18.9091 4.48864 17.9583 4.73864 16.6477C4.99621 15.3371 5.16667 13.5795 5.25 11.375L5.63636 0.727272H20.8864V24H16.7614V4.19318H9.56818L9.20455 12.6818C9.09849 15.2273 8.81818 17.3371 8.36364 19.0114C7.91667 20.6856 7.18182 21.9356 6.15909 22.7614C5.14394 23.5871 3.73106 24 1.92045 24H0.784091ZM46.2784 12.3636C46.2784 14.8712 45.8087 17.0189 44.8693 18.8068C43.9375 20.5871 42.6648 21.9508 41.0511 22.8977C39.4451 23.8447 37.6231 24.3182 35.5852 24.3182C33.5473 24.3182 31.7216 23.8447 30.108 22.8977C28.5019 21.9432 27.2292 20.5758 26.2898 18.7955C25.358 17.0076 24.892 14.8636 24.892 12.3636C24.892 9.85606 25.358 7.71212 26.2898 5.93182C27.2292 4.14394 28.5019 2.77651 30.108 1.82954C31.7216 0.882575 33.5473 0.40909 35.5852 0.40909C37.6231 0.40909 39.4451 0.882575 41.0511 1.82954C42.6648 2.77651 43.9375 4.14394 44.8693 5.93182C45.8087 7.71212 46.2784 9.85606 46.2784 12.3636ZM42.0398 12.3636C42.0398 10.5985 41.7633 9.10985 41.2102 7.89773C40.6648 6.67803 39.9072 5.75758 38.9375 5.13636C37.9678 4.50758 36.8504 4.19318 35.5852 4.19318C34.3201 4.19318 33.2027 4.50758 32.233 5.13636C31.2633 5.75758 30.5019 6.67803 29.9489 7.89773C29.4034 9.10985 29.1307 10.5985 29.1307 12.3636C29.1307 14.1288 29.4034 15.6212 29.9489 16.8409C30.5019 18.053 31.2633 18.9735 32.233 19.6023C33.2027 20.2235 34.3201 20.5341 35.5852 20.5341C36.8504 20.5341 37.9678 20.2235 38.9375 19.6023C39.9072 18.9735 40.6648 18.053 41.2102 16.8409C41.7633 15.6212 42.0398 14.1288 42.0398 12.3636ZM65.2301 0.727272V4.26136H54.4801V24H50.2642V0.727272H65.2301ZM88.5597 12.3636C88.5597 14.8712 88.09 17.0189 87.1506 18.8068C86.2188 20.5871 84.946 21.9508 83.3324 22.8977C81.7263 23.8447 79.9044 24.3182 77.8665 24.3182C75.8286 24.3182 74.0028 23.8447 72.3892 22.8977C70.7831 21.9432 69.5104 20.5758 68.571 18.7955C67.6392 17.0076 67.1733 14.8636 67.1733 12.3636C67.1733 9.85606 67.6392 7.71212 68.571 5.93182C69.5104 4.14394 70.7831 2.77651 72.3892 1.82954C74.0028 0.882575 75.8286 0.40909 77.8665 0.40909C79.9044 0.40909 81.7263 0.882575 83.3324 1.82954C84.946 2.77651 86.2188 4.14394 87.1506 5.93182C88.09 7.71212 88.5597 9.85606 88.5597 12.3636ZM84.321 12.3636C84.321 10.5985 84.0445 9.10985 83.4915 7.89773C82.946 6.67803 82.1884 5.75758 81.2188 5.13636C80.2491 4.50758 79.1316 4.19318 77.8665 4.19318C76.6013 4.19318 75.4839 4.50758 74.5142 5.13636C73.5445 5.75758 72.7831 6.67803 72.2301 7.89773C71.6847 9.10985 71.4119 10.5985 71.4119 12.3636C71.4119 14.1288 71.6847 15.6212 72.2301 16.8409C72.7831 18.053 73.5445 18.9735 74.5142 19.6023C75.4839 20.2235 76.6013 20.5341 77.8665 20.5341C79.1316 20.5341 80.2491 20.2235 81.2188 19.6023C82.1884 18.9735 82.946 18.053 83.4915 16.8409C84.0445 15.6212 84.321 14.1288 84.321 12.3636Z" fill="black"/>
</svg>
