<svg width="46" height="46" viewBox="0 0 46 46" fill="none" xmlns="http://www.w3.org/2000/svg">
<g id="Frame">
<g id="Group">
<path id="Vector" d="M23 0C14.9141 0 8.17578 6.52257 8.17578 14.8242C8.17578 17.9776 9.11905 20.8077 10.952 23.4492L21.8681 40.6633C22.1375 41.0944 22.5688 41.2831 23.0001 41.2831C23.4313 41.2831 23.8626 41.0944 24.132 40.6633L35.102 23.3953C36.881 20.8617 37.8242 17.8969 37.8242 14.8242C37.8242 6.65733 31.1669 0 23 0ZM23 21.5625C19.2845 21.5625 16.2617 18.5397 16.2617 14.8242C16.2617 11.1087 19.2845 8.08594 23 8.08594C26.7155 8.08594 29.7383 11.1087 29.7383 14.8242C29.7383 18.5397 26.7155 21.5625 23 21.5625Z" fill="#FD3018"/>
<path id="Vector_2" d="M23 0V8.08594C26.7155 8.08594 29.7383 11.1087 29.7383 14.8242C29.7383 18.5397 26.7155 21.5625 23 21.5625V41.2832C23.4312 41.2832 23.8625 41.0945 24.1319 40.6634L35.102 23.3953C36.8809 20.8617 37.8242 17.8969 37.8242 14.8242C37.8242 6.65733 31.1669 0 23 0Z" fill="#E61E14"/>
</g>
</g>
</svg>
